<svg aria-roledescription="flowchart-v2" role="graphics-document document" viewBox="-8 -8 948.09765625 1262.0390625" style="max-width: 948.098px; background-color: transparent;" xmlns:xlink="http://www.w3.org/1999/xlink" xmlns="http://www.w3.org/2000/svg" width="100%" id="my-svg"><style>#my-svg{font-family:"trebuchet ms",verdana,arial,sans-serif;font-size:16px;fill:#333;}#my-svg .error-icon{fill:#552222;}#my-svg .error-text{fill:#552222;stroke:#552222;}#my-svg .edge-thickness-normal{stroke-width:2px;}#my-svg .edge-thickness-thick{stroke-width:3.5px;}#my-svg .edge-pattern-solid{stroke-dasharray:0;}#my-svg .edge-pattern-dashed{stroke-dasharray:3;}#my-svg .edge-pattern-dotted{stroke-dasharray:2;}#my-svg .marker{fill:#333333;stroke:#333333;}#my-svg .marker.cross{stroke:#333333;}#my-svg svg{font-family:"trebuchet ms",verdana,arial,sans-serif;font-size:16px;}#my-svg .label{font-family:"trebuchet ms",verdana,arial,sans-serif;color:#333;}#my-svg .cluster-label text{fill:#333;}#my-svg .cluster-label span,#my-svg p{color:#333;}#my-svg .label text,#my-svg span,#my-svg p{fill:#333;color:#333;}#my-svg .node rect,#my-svg .node circle,#my-svg .node ellipse,#my-svg .node polygon,#my-svg .node path{fill:#ECECFF;stroke:#9370DB;stroke-width:1px;}#my-svg .flowchart-label text{text-anchor:middle;}#my-svg .node .katex path{fill:#000;stroke:#000;stroke-width:1px;}#my-svg .node .label{text-align:center;}#my-svg .node.clickable{cursor:pointer;}#my-svg .arrowheadPath{fill:#333333;}#my-svg .edgePath .path{stroke:#333333;stroke-width:2.0px;}#my-svg .flowchart-link{stroke:#333333;fill:none;}#my-svg .edgeLabel{background-color:#e8e8e8;text-align:center;}#my-svg .edgeLabel rect{opacity:0.5;background-color:#e8e8e8;fill:#e8e8e8;}#my-svg .labelBkg{background-color:rgba(232, 232, 232, 0.5);}#my-svg .cluster rect{fill:#ffffde;stroke:#aaaa33;stroke-width:1px;}#my-svg .cluster text{fill:#333;}#my-svg .cluster span,#my-svg p{color:#333;}#my-svg div.mermaidTooltip{position:absolute;text-align:center;max-width:200px;padding:2px;font-family:"trebuchet ms",verdana,arial,sans-serif;font-size:12px;background:hsl(80, 100%, 96.2745098039%);border:1px solid #aaaa33;border-radius:2px;pointer-events:none;z-index:100;}#my-svg .flowchartTitleText{text-anchor:middle;font-size:18px;fill:#333;}#my-svg :root{--mermaid-font-family:"trebuchet ms",verdana,arial,sans-serif;}</style><g><marker orient="auto" markerHeight="12" markerWidth="12" markerUnits="userSpaceOnUse" refY="5" refX="6" viewBox="0 0 10 10" class="marker flowchart" id="my-svg_flowchart-pointEnd"><path style="stroke-width: 1; stroke-dasharray: 1, 0;" class="arrowMarkerPath" d="M 0 0 L 10 5 L 0 10 z"/></marker><marker orient="auto" markerHeight="12" markerWidth="12" markerUnits="userSpaceOnUse" refY="5" refX="4.5" viewBox="0 0 10 10" class="marker flowchart" id="my-svg_flowchart-pointStart"><path style="stroke-width: 1; stroke-dasharray: 1, 0;" class="arrowMarkerPath" d="M 0 5 L 10 10 L 10 0 z"/></marker><marker orient="auto" markerHeight="11" markerWidth="11" markerUnits="userSpaceOnUse" refY="5" refX="11" viewBox="0 0 10 10" class="marker flowchart" id="my-svg_flowchart-circleEnd"><circle style="stroke-width: 1; stroke-dasharray: 1, 0;" class="arrowMarkerPath" r="5" cy="5" cx="5"/></marker><marker orient="auto" markerHeight="11" markerWidth="11" markerUnits="userSpaceOnUse" refY="5" refX="-1" viewBox="0 0 10 10" class="marker flowchart" id="my-svg_flowchart-circleStart"><circle style="stroke-width: 1; stroke-dasharray: 1, 0;" class="arrowMarkerPath" r="5" cy="5" cx="5"/></marker><marker orient="auto" markerHeight="11" markerWidth="11" markerUnits="userSpaceOnUse" refY="5.2" refX="12" viewBox="0 0 11 11" class="marker cross flowchart" id="my-svg_flowchart-crossEnd"><path style="stroke-width: 2; stroke-dasharray: 1, 0;" class="arrowMarkerPath" d="M 1,1 l 9,9 M 10,1 l -9,9"/></marker><marker orient="auto" markerHeight="11" markerWidth="11" markerUnits="userSpaceOnUse" refY="5.2" refX="-1" viewBox="0 0 11 11" class="marker cross flowchart" id="my-svg_flowchart-crossStart"><path style="stroke-width: 2; stroke-dasharray: 1, 0;" class="arrowMarkerPath" d="M 1,1 l 9,9 M 10,1 l -9,9"/></marker><g class="root"><g class="clusters"/><g class="edgePaths"><path marker-end="url(#my-svg_flowchart-pointEnd)" style="fill:none;" class="edge-thickness-normal edge-pattern-solid flowchart-link LS-A LE-B" id="L-A-B-0" d="M175.123,52L175.123,56.167C175.123,60.333,175.123,68.667,175.189,76.2C175.255,83.734,175.387,90.467,175.453,93.834L175.519,97.201"/><path marker-end="url(#my-svg_flowchart-pointEnd)" style="fill:none;" class="edge-thickness-normal edge-pattern-solid flowchart-link LS-B LE-C1" id="L-B-C1-0" d="M128.728,303.362L120.406,316.803C112.084,330.244,95.44,357.126,87.119,380.609C78.797,404.091,78.797,424.174,78.797,442.716C78.797,461.258,78.797,478.258,78.797,503.69C78.797,529.121,78.797,562.985,78.797,579.917L78.797,596.848"/><path marker-end="url(#my-svg_flowchart-pointEnd)" style="fill:none;" class="edge-thickness-normal edge-pattern-solid flowchart-link LS-B LE-C2" id="L-B-C2-0" d="M222.518,303.362L230.674,316.803C238.829,330.244,255.139,357.126,263.294,380.609C271.449,404.091,271.449,424.174,271.449,442.716C271.449,461.258,271.449,478.258,271.449,503.69C271.449,529.121,271.449,562.985,271.449,579.917L271.449,596.848"/><path marker-end="url(#my-svg_flowchart-pointEnd)" style="fill:none;" class="edge-thickness-normal edge-pattern-solid flowchart-link LS-B LE-D" id="L-B-D-0" d="M262.315,263.566L309.222,283.64C356.128,303.713,449.942,343.861,496.849,368.759C543.756,393.658,543.756,403.308,543.756,408.133L543.756,412.958"/><path marker-end="url(#my-svg_flowchart-pointEnd)" style="fill:none;" class="edge-thickness-normal edge-pattern-solid flowchart-link LS-C1 LE-E" id="L-C1-E-0" d="M78.797,654.148L78.797,675.047C78.797,695.945,78.797,737.742,102.902,765.644C127.008,793.546,175.219,807.553,199.325,814.557L223.43,821.56"/><path marker-end="url(#my-svg_flowchart-pointEnd)" style="fill:none;" class="edge-thickness-normal edge-pattern-solid flowchart-link LS-C2 LE-E" id="L-C2-E-0" d="M271.449,654.148L271.449,675.047C271.449,695.945,271.449,737.742,273.011,765.033C274.573,792.323,277.697,805.107,279.259,811.499L280.821,817.891"/><path marker-end="url(#my-svg_flowchart-pointEnd)" style="fill:none;" class="edge-thickness-normal edge-pattern-solid flowchart-link LS-D LE-F" id="L-D-F-0" d="M543.756,470.258L543.756,474.424C543.756,478.591,543.756,486.924,543.822,494.458C543.888,501.991,544.02,508.725,544.086,512.092L544.152,515.459"/><path marker-end="url(#my-svg_flowchart-pointEnd)" style="fill:none;" class="edge-thickness-normal edge-pattern-solid flowchart-link LS-F LE-E" id="L-F-E-0" d="M494.832,687.115L481.657,702.519C468.482,717.923,442.132,748.731,414.161,771.013C386.191,793.294,356.601,807.05,341.806,813.927L327.01,820.805"/><path marker-end="url(#my-svg_flowchart-pointEnd)" style="fill:none;" class="edge-thickness-normal edge-pattern-solid flowchart-link LS-F LE-E" id="L-F-E-1" d="M567.208,713.587L570.117,724.579C573.026,735.571,578.845,757.555,546.702,775.622C514.56,793.69,444.455,807.84,409.403,814.915L374.35,821.99"/><path marker-end="url(#my-svg_flowchart-pointEnd)" style="fill:none;" class="edge-thickness-normal edge-pattern-solid flowchart-link LS-F LE-G" id="L-F-G-0" d="M609.016,671.779L636.024,689.739C663.033,707.699,717.05,743.619,744.058,767.946C771.066,792.272,771.066,805.006,771.066,811.372L771.066,817.739"/><path marker-end="url(#my-svg_flowchart-pointEnd)" style="fill:none;" class="edge-thickness-normal edge-pattern-solid flowchart-link LS-G LE-H" id="L-G-H-0" d="M771.066,856.539L771.066,860.706C771.066,864.872,771.066,873.206,771.066,880.656C771.066,888.106,771.066,894.672,771.066,897.956L771.066,901.239"/><path marker-end="url(#my-svg_flowchart-pointEnd)" style="fill:none;" class="edge-thickness-normal edge-pattern-solid flowchart-link LS-H LE-I" id="L-H-I-0" d="M771.066,977.039L771.066,981.206C771.066,985.372,771.066,993.706,771.066,1001.156C771.066,1008.606,771.066,1015.172,771.066,1018.456L771.066,1021.739"/><path marker-end="url(#my-svg_flowchart-pointEnd)" style="fill:none;" class="edge-thickness-normal edge-pattern-solid flowchart-link LS-I LE-I1" id="L-I-I1-0" d="M771.066,1079.039L771.066,1083.206C771.066,1087.372,771.066,1095.706,771.066,1103.156C771.066,1110.606,771.066,1117.172,771.066,1120.456L771.066,1123.739"/><path marker-end="url(#my-svg_flowchart-pointEnd)" style="fill:none;" class="edge-thickness-normal edge-pattern-solid flowchart-link LS-I1 LE-I2" id="L-I1-I2-0" d="M682.461,1158.22L647.629,1163.106C612.797,1167.993,543.133,1177.766,508.301,1185.936C473.469,1194.106,473.469,1200.672,473.469,1203.956L473.469,1207.239"/><path marker-end="url(#my-svg_flowchart-pointEnd)" style="fill:none;" class="edge-thickness-normal edge-pattern-solid flowchart-link LS-I1 LE-I3" id="L-I1-I3-0" d="M734.277,1162.539L725.125,1166.706C715.974,1170.872,697.67,1179.206,688.519,1186.656C679.367,1194.106,679.367,1200.672,679.367,1203.956L679.367,1207.239"/><path marker-end="url(#my-svg_flowchart-pointEnd)" style="fill:none;" class="edge-thickness-normal edge-pattern-solid flowchart-link LS-I1 LE-I4" id="L-I1-I4-0" d="M807.856,1162.539L817.008,1166.706C826.159,1170.872,844.462,1179.206,853.614,1186.656C862.766,1194.106,862.766,1200.672,862.766,1203.956L862.766,1207.239"/></g><g class="edgeLabels"><g class="edgeLabel"><g transform="translate(0, 0)" class="label"><foreignObject height="0" width="0"><div style="display: inline-block; white-space: nowrap;" xmlns="http://www.w3.org/1999/xhtml"><span class="edgeLabel"></span></div></foreignObject></g></g><g transform="translate(78.796875, 444.2578125)" class="edgeLabel"><g transform="translate(-61.64453125, -9.25)" class="label"><foreignObject height="18.5" width="123.2890625"><div style="display: inline-block; white-space: nowrap;" xmlns="http://www.w3.org/1999/xhtml"><span class="edgeLabel">judgmentkit.com</span></div></foreignObject></g></g><g transform="translate(271.44921875, 444.2578125)" class="edgeLabel"><g transform="translate(-66.0078125, -9.25)" class="label"><foreignObject height="18.5" width="132.015625"><div style="display: inline-block; white-space: nowrap;" xmlns="http://www.w3.org/1999/xhtml"><span class="edgeLabel">judgementkit.com</span></div></foreignObject></g></g><g transform="translate(543.755859375, 384.0078125)" class="edgeLabel"><g transform="translate(-69.4765625, -9.25)" class="label"><foreignObject height="18.5" width="138.953125"><div style="display: inline-block; white-space: nowrap;" xmlns="http://www.w3.org/1999/xhtml"><span class="edgeLabel">judgmentkit.design</span></div></foreignObject></g></g><g transform="translate(78.796875, 779.5390625)" class="edgeLabel"><g transform="translate(-78.796875, -18.5)" class="label"><foreignObject height="37" width="157.59375"><div style="display: inline-block; white-space: nowrap;" xmlns="http://www.w3.org/1999/xhtml"><span class="edgeLabel">301/308 (one hop)<br />preserve path + query</span></div></foreignObject></g></g><g transform="translate(271.44921875, 779.5390625)" class="edgeLabel"><g transform="translate(-78.796875, -18.5)" class="label"><foreignObject height="37" width="157.59375"><div style="display: inline-block; white-space: nowrap;" xmlns="http://www.w3.org/1999/xhtml"><span class="edgeLabel">301/308 (one hop)<br />preserve path + query</span></div></foreignObject></g></g><g class="edgeLabel"><g transform="translate(0, 0)" class="label"><foreignObject height="0" width="0"><div style="display: inline-block; white-space: nowrap;" xmlns="http://www.w3.org/1999/xhtml"><span class="edgeLabel"></span></div></foreignObject></g></g><g transform="translate(415.78125, 779.5390625)" class="edgeLabel"><g transform="translate(-45.53515625, -9.25)" class="label"><foreignObject height="18.5" width="91.0703125"><div style="display: inline-block; white-space: nowrap;" xmlns="http://www.w3.org/1999/xhtml"><span class="edgeLabel">http -&gt; https</span></div></foreignObject></g></g><g transform="translate(584.6640625, 779.5390625)" class="edgeLabel"><g transform="translate(-103.34765625, -9.25)" class="label"><foreignObject height="18.5" width="206.6953125"><div style="display: inline-block; white-space: nowrap;" xmlns="http://www.w3.org/1999/xhtml"><span class="edgeLabel">www -&gt; apex (if www exists)</span></div></foreignObject></g></g><g transform="translate(771.06640625, 779.5390625)" class="edgeLabel"><g transform="translate(-63.0546875, -9.25)" class="label"><foreignObject height="18.5" width="126.109375"><div style="display: inline-block; white-space: nowrap;" xmlns="http://www.w3.org/1999/xhtml"><span class="edgeLabel">already canonical</span></div></foreignObject></g></g><g class="edgeLabel"><g transform="translate(0, 0)" class="label"><foreignObject height="0" width="0"><div style="display: inline-block; white-space: nowrap;" xmlns="http://www.w3.org/1999/xhtml"><span class="edgeLabel"></span></div></foreignObject></g></g><g class="edgeLabel"><g transform="translate(0, 0)" class="label"><foreignObject height="0" width="0"><div style="display: inline-block; white-space: nowrap;" xmlns="http://www.w3.org/1999/xhtml"><span class="edgeLabel"></span></div></foreignObject></g></g><g class="edgeLabel"><g transform="translate(0, 0)" class="label"><foreignObject height="0" width="0"><div style="display: inline-block; white-space: nowrap;" xmlns="http://www.w3.org/1999/xhtml"><span class="edgeLabel"></span></div></foreignObject></g></g><g class="edgeLabel"><g transform="translate(0, 0)" class="label"><foreignObject height="0" width="0"><div style="display: inline-block; white-space: nowrap;" xmlns="http://www.w3.org/1999/xhtml"><span class="edgeLabel"></span></div></foreignObject></g></g><g class="edgeLabel"><g transform="translate(0, 0)" class="label"><foreignObject height="0" width="0"><div style="display: inline-block; white-space: nowrap;" xmlns="http://www.w3.org/1999/xhtml"><span class="edgeLabel"></span></div></foreignObject></g></g><g class="edgeLabel"><g transform="translate(0, 0)" class="label"><foreignObject height="0" width="0"><div style="display: inline-block; white-space: nowrap;" xmlns="http://www.w3.org/1999/xhtml"><span class="edgeLabel"></span></div></foreignObject></g></g></g><g class="nodes"><g transform="translate(175.123046875, 26)" data-id="A" data-node="true" id="flowchart-A-0" class="node default default flowchart-label"><rect height="52" width="334.7890625" y="-26" x="-167.39453125" ry="0" rx="0" style="" class="basic label-container"/><g transform="translate(-159.89453125, -18.5)" style="" class="label"><rect/><foreignObject height="37" width="319.7890625"><div style="display: inline-block; white-space: nowrap;" xmlns="http://www.w3.org/1999/xhtml"><span class="nodeLabel">Traffic entry<br />LinkedIn • SEO • AI citations • direct type-in</span></div></foreignObject></g></g><g transform="translate(175.123046875, 225.87890625)" data-id="B" data-node="true" id="flowchart-B-1" class="node default default flowchart-label"><polygon style="" transform="translate(-123.87890625,123.87890625)" class="label-container" points="123.87890625,0 247.7578125,-123.87890625 123.87890625,-247.7578125 0,-123.87890625"/><g transform="translate(-99.62890625, -9.25)" style="" class="label"><rect/><foreignObject height="18.5" width="199.2578125"><div style="display: inline-block; white-space: nowrap;" xmlns="http://www.w3.org/1999/xhtml"><span class="nodeLabel">Which domain is requested?</span></div></foreignObject></g></g><g transform="translate(78.796875, 628.1484375)" data-id="C1" data-node="true" id="flowchart-C1-3" class="node default default flowchart-label"><rect height="52" width="138.2890625" y="-26" x="-69.14453125" ry="0" rx="0" style="" class="basic label-container"/><g transform="translate(-61.64453125, -18.5)" style="" class="label"><rect/><foreignObject height="37" width="123.2890625"><div style="display: inline-block; white-space: nowrap;" xmlns="http://www.w3.org/1999/xhtml"><span class="nodeLabel">judgmentkit.com<br />Redirect-only</span></div></foreignObject></g></g><g transform="translate(271.44921875, 628.1484375)" data-id="C2" data-node="true" id="flowchart-C2-5" class="node default default flowchart-label"><rect height="52" width="147.015625" y="-26" x="-73.5078125" ry="0" rx="0" style="" class="basic label-container"/><g transform="translate(-66.0078125, -18.5)" style="" class="label"><rect/><foreignObject height="37" width="132.015625"><div style="display: inline-block; white-space: nowrap;" xmlns="http://www.w3.org/1999/xhtml"><span class="nodeLabel">judgementkit.com<br />Redirect-only</span></div></foreignObject></g></g><g transform="translate(543.755859375, 444.2578125)" data-id="D" data-node="true" id="flowchart-D-7" class="node default default flowchart-label"><rect height="52" width="153.953125" y="-26" x="-76.9765625" ry="0" rx="0" style="" class="basic label-container"/><g transform="translate(-69.4765625, -18.5)" style="" class="label"><rect/><foreignObject height="37" width="138.953125"><div style="display: inline-block; white-space: nowrap;" xmlns="http://www.w3.org/1999/xhtml"><span class="nodeLabel">judgmentkit.design<br />Canonical site</span></div></foreignObject></g></g><g transform="translate(286.171875, 839.7890625)" data-id="E" data-node="true" id="flowchart-E-9" class="node default default flowchart-label"><rect height="33.5" width="317.375" y="-16.75" x="-158.6875" ry="0" rx="0" style="" class="basic label-container"/><g transform="translate(-151.1875, -9.25)" style="" class="label"><rect/><foreignObject height="18.5" width="302.375"><div style="display: inline-block; white-space: nowrap;" xmlns="http://www.w3.org/1999/xhtml"><span class="nodeLabel">https://judgmentkit.design/$path?$query</span></div></foreignObject></g></g><g transform="translate(543.755859375, 628.1484375)" data-id="F" data-node="true" id="flowchart-F-13" class="node default default flowchart-label"><polygon style="" transform="translate(-107.890625,107.890625)" class="label-container" points="107.890625,0 215.78125,-107.890625 107.890625,-215.78125 0,-107.890625"/><g transform="translate(-83.640625, -9.25)" style="" class="label"><rect/><foreignObject height="18.5" width="167.28125"><div style="display: inline-block; white-space: nowrap;" xmlns="http://www.w3.org/1999/xhtml"><span class="nodeLabel">Normalize on canonical</span></div></foreignObject></g></g><g transform="translate(771.06640625, 839.7890625)" data-id="G" data-node="true" id="flowchart-G-19" class="node default default flowchart-label"><rect height="33.5" width="156.171875" y="-16.75" x="-78.0859375" ry="0" rx="0" style="" class="basic label-container"/><g transform="translate(-70.5859375, -9.25)" style="" class="label"><rect/><foreignObject height="18.5" width="141.171875"><div style="display: inline-block; white-space: nowrap;" xmlns="http://www.w3.org/1999/xhtml"><span class="nodeLabel">Serve content (200)</span></div></foreignObject></g></g><g transform="translate(771.06640625, 941.7890625)" data-id="H" data-node="true" id="flowchart-H-21" class="node default default flowchart-label"><rect height="70.5" width="259.515625" y="-35.25" x="-129.7578125" ry="0" rx="0" style="" class="basic label-container"/><g transform="translate(-122.2578125, -27.75)" style="" class="label"><rect/><foreignObject height="55.5" width="244.515625"><div style="display: inline-block; white-space: nowrap;" xmlns="http://www.w3.org/1999/xhtml"><span class="nodeLabel">Canonical-only signals<br />rel=canonical • sitemap • OG tags<br />(never on .com domains)</span></div></foreignObject></g></g><g transform="translate(771.06640625, 1053.0390625)" data-id="I" data-node="true" id="flowchart-I-23" class="node default default flowchart-label"><rect height="52" width="228.484375" y="-26" x="-114.2421875" ry="0" rx="0" style="" class="basic label-container"/><g transform="translate(-106.7421875, -18.5)" style="" class="label"><rect/><foreignObject height="37" width="213.484375"><div style="display: inline-block; white-space: nowrap;" xmlns="http://www.w3.org/1999/xhtml"><span class="nodeLabel">Platform IA under /kits<br />Kit pages + module deep links</span></div></foreignObject></g></g><g transform="translate(771.06640625, 1145.7890625)" data-id="I1" data-node="true" id="flowchart-I1-25" class="node default default flowchart-label"><rect height="33.5" width="177.2109375" y="-16.75" x="-88.60546875" ry="0" rx="0" style="" class="basic label-container"/><g transform="translate(-81.10546875, -9.25)" style="" class="label"><rect/><foreignObject height="18.5" width="162.2109375"><div style="display: inline-block; white-space: nowrap;" xmlns="http://www.w3.org/1999/xhtml"><span class="nodeLabel">/kits/design-judgment</span></div></foreignObject></g></g><g transform="translate(473.46875, 1229.2890625)" data-id="I2" data-node="true" id="flowchart-I2-27" class="node default default flowchart-label"><rect height="33.5" width="183.6640625" y="-16.75" x="-91.83203125" ry="0" rx="0" style="" class="basic label-container"/><g transform="translate(-84.33203125, -9.25)" style="" class="label"><rect/><foreignObject height="18.5" width="168.6640625"><div style="display: inline-block; white-space: nowrap;" xmlns="http://www.w3.org/1999/xhtml"><span class="nodeLabel">/responsibilities-matrix</span></div></foreignObject></g></g><g transform="translate(679.3671875, 1229.2890625)" data-id="I3" data-node="true" id="flowchart-I3-29" class="node default default flowchart-label"><rect height="33.5" width="128.1328125" y="-16.75" x="-64.06640625" ry="0" rx="0" style="" class="basic label-container"/><g transform="translate(-56.56640625, -9.25)" style="" class="label"><rect/><foreignObject height="18.5" width="113.1328125"><div style="display: inline-block; white-space: nowrap;" xmlns="http://www.w3.org/1999/xhtml"><span class="nodeLabel">/decision-rights</span></div></foreignObject></g></g><g transform="translate(862.765625, 1229.2890625)" data-id="I4" data-node="true" id="flowchart-I4-31" class="node default default flowchart-label"><rect height="33.5" width="138.6640625" y="-16.75" x="-69.33203125" ry="0" rx="0" style="" class="basic label-container"/><g transform="translate(-61.83203125, -9.25)" style="" class="label"><rect/><foreignObject height="18.5" width="123.6640625"><div style="display: inline-block; white-space: nowrap;" xmlns="http://www.w3.org/1999/xhtml"><span class="nodeLabel">/weekly-cadence</span></div></foreignObject></g></g></g></g></g></svg>